<?xml version="1.0" encoding="utf-8"?>
<svg version="1.1" id="Layer_1" xmlns="http://www.w3.org/2000/svg" xmlns:xlink="http://www.w3.org/1999/xlink" x="0px" y="0px"
	 viewBox="0 0 18 18" style="enable-background:new 0 0 18 18;" xml:space="preserve">
<style type="text/css">
	.st0{fill:#FFFFFF;}
	.st1{opacity:0.5;fill:#FFFFFF;}
</style>
<path class="st0" d="M2,2l2,14.2c0.1,1,1,1.8,2,1.8h6c1,0,1.9-0.8,2-1.8L16,2H2z M12,16H6L4,4h10L12,16z"/>
<polygon class="st1" points="4.7,8 6,16 12,16 13.3,8 "/>
<path class="st1" d="M10.5,15L10.5,15c-0.3,0-0.5-0.2-0.5-0.5l2-14C12,0.2,12.2,0,12.5,0h0C12.8,0,13,0.2,13,0.5l-2,14
	C11,14.8,10.8,15,10.5,15z"/>
</svg>
